<svg xmlns="http://www.w3.org/2000/svg" viewBox="0 0 64 64" id="404Error"><path fill="#f5f0f0" fill-rule="evenodd" d="m59 16.99-27.8-5.07L5 16.99v33.53c0 3.02 2.43 5.45 5.45 5.45h43.1c3.02 0 5.45-2.43 5.45-5.45V16.99Z" class="colorf0f3f5 svgShape"></path><path fill="#f88f8f" fill-rule="evenodd" d="M10.45 8.03C7.43 8.03 5 10.46 5 13.48v3.51h54v-3.51c0-3.02-2.43-5.45-5.45-5.45h-43.1Z" class="color8fd7f8 svgShape"></path><path fill="#e41f1f" fill-rule="evenodd" d="M42.48 25.1c.86 0 1.55.69 1.55 1.55v5.04c0 .97.74 1.71 1.71 1.71h2.07v-6.75c0-.86.69-1.55 1.55-1.55.86 0 1.55.69 1.55 1.55v14.16c0 .85-.69 1.55-1.55 1.55-.85 0-1.55-.69-1.55-1.55V36.5h-2.07c-2.63 0-4.81-2.17-4.81-4.81v-5.04c0-.86.69-1.55 1.55-1.55zM32 28.2c1.07 0 1.89.81 1.89 1.89v7.29c0 1.07-.82 1.89-1.89 1.89s-1.89-.82-1.89-1.89v-7.29c0-1.07.82-1.89 1.89-1.89zm0-3.1c-2.73 0-4.98 2.25-4.98 4.98v7.29c0 2.73 2.25 4.98 4.98 4.98s4.98-2.25 4.98-4.98v-7.29c0-2.73-2.25-4.98-4.98-4.98zm-17.36 0c.85 0 1.55.69 1.55 1.55v5.04c0 .97.73 1.71 1.71 1.71h2.07v-6.75c0-.86.69-1.55 1.55-1.55.86 0 1.55.69 1.55 1.55v14.16c0 .85-.69 1.55-1.55 1.55-.85 0-1.55-.69-1.55-1.55V36.5H17.9c-2.63 0-4.8-2.17-4.8-4.81v-5.04c0-.86.69-1.55 1.55-1.55z" class="color7a8594 svgShape"></path><circle cx="10.38" cy="12.72" r="1" fill="#f5f0f0" class="colorf0f3f5 svgShape"></circle><circle cx="14.41" cy="12.72" r="1" fill="#f5f0f0" class="colorf0f3f5 svgShape"></circle><circle cx="18.44" cy="12.72" r="1" fill="#f5f0f0" class="colorf0f3f5 svgShape"></circle><path fill="#f56b6b" fill-rule="evenodd" d="M27.34 11.71c-.55 0-1 .45-1 1s.45 1 1 1h25.48c.55 0 1-.45 1-1s-.45-1-1-1H27.34zm-3.2 35.02c-.55 0-1 .45-1 1s.45 1 1 1h15.71c.55 0 1-.45 1-1s-.45-1-1-1H24.14z" class="color6bbdf5 svgShape"></path><circle cx="16.12" cy="47.73" r="1" fill="#b69f9f" class="color9fa9b6 svgShape"></circle><circle cx="20.15" cy="47.73" r="1" fill="#b69f9f" class="color9fa9b6 svgShape"></circle><circle cx="43.85" cy="47.73" r="1" fill="#b69f9f" class="color9fa9b6 svgShape"></circle><circle cx="47.88" cy="47.73" r="1" fill="#b69f9f" class="color9fa9b6 svgShape"></circle></svg>