<svg width="34" height="30" viewBox="0 0 34 30" fill="none" xmlns="http://www.w3.org/2000/svg">
<path d="M20.5482 7.2H1.47433C0.674506 7.2 0.026123 6.39411 0.026123 5.4C0.026123 4.40589 0.674506 3.6 1.47433 3.6H20.5482C21.1446 1.50265 22.7539 0 24.6456 0C26.5373 0 28.1466 1.50265 28.743 3.6H32.3693C33.1692 3.6 33.8175 4.40589 33.8175 5.4C33.8175 6.39411 33.1692 7.2 32.3693 7.2H28.743C28.1466 9.29735 26.5373 10.8 24.6456 10.8C22.7539 10.8 21.1446 9.29735 20.5482 7.2Z" fill="#6A6A6A"/>
<path d="M32.3693 26.4C33.1692 26.4 33.8175 25.5941 33.8175 24.6C33.8175 23.6059 33.1692 22.8 32.3693 22.8H13.2955C12.699 20.7027 11.0897 19.2 9.19808 19.2C7.30641 19.2 5.69711 20.7027 5.10068 22.8H1.47433C0.674507 22.8 0.026123 23.6059 0.026123 24.6C0.026123 25.5941 0.674507 26.4 1.47433 26.4H5.10068C5.69711 28.4973 7.30641 30 9.19808 30C11.0897 30 12.699 28.4973 13.2955 26.4H32.3693Z" fill="#6A6A6A"/>
</svg>
